<svg width="165" height="28" viewBox="0 0 165 28" fill="none" xmlns="http://www.w3.org/2000/svg">
<path d="M151.695 4.4245C151.695 4.02131 151.79 3.67117 151.981 3.37409C152.172 3.077 152.416 2.85419 152.713 2.70565C153.01 2.53588 153.329 2.451 153.668 2.451C154.029 2.42978 154.358 2.49344 154.655 2.64198C155.355 3.02395 155.992 3.4908 156.565 4.04253C157.159 4.57304 157.732 5.11416 158.284 5.66589C159.175 6.47226 159.981 7.28925 160.703 8.11685C161.424 8.92322 162.082 9.69776 162.676 10.4405C164.225 12.4989 165 14.0692 165 15.1514C165 16.5732 163.005 19.4804 159.016 23.873C158.782 24.1489 158.528 24.4459 158.252 24.7642C157.976 25.0826 157.69 25.4009 157.393 25.7192C157.095 26.0162 156.788 26.2815 156.469 26.5149C156.151 26.7696 155.822 26.9712 155.483 27.1197C154.825 27.3744 154.252 27.4062 153.764 27.2152C153.297 27.0242 152.957 26.7165 152.745 26.2921C152.533 25.8677 152.48 25.3796 152.586 24.8279C152.692 24.255 153 23.7138 153.509 23.2045C153.891 22.8014 154.284 22.3982 154.687 21.995C155.111 21.5918 155.525 21.178 155.928 20.7536C156.607 20.0958 157.244 19.4273 157.838 18.7483C158.432 18.0692 158.995 17.3583 159.525 16.6156C159.801 16.2124 159.95 15.8198 159.971 15.4379C159.992 15.0559 159.928 14.6952 159.78 14.3556C159.631 14.0161 159.43 13.6872 159.175 13.3689C158.92 13.0506 158.666 12.7429 158.411 12.4458C157.668 11.5333 156.894 10.6633 156.087 9.8357C155.302 9.0081 154.464 8.22295 153.573 7.48023C153.212 7.11949 152.926 6.84362 152.713 6.65264C152.501 6.44044 152.353 6.27067 152.268 6.14335C152.056 5.90993 151.907 5.64467 151.822 5.34758C151.737 5.0505 151.695 4.7428 151.695 4.4245Z" fill="#FF8A00"/>
<path d="M143.554 19.9641C143.085 19.6678 142.554 19.4332 141.961 19.2603C141.393 19.0875 140.801 18.927 140.183 18.7788C139.591 18.6307 139.011 18.4702 138.443 18.2973C137.875 18.0998 137.356 17.8281 136.887 17.4824C135.875 16.717 135.282 15.7786 135.109 14.6675C134.961 13.5316 135.208 12.3957 135.85 11.2599C136.196 10.6672 136.652 10.1857 137.22 9.81533C137.788 9.42024 138.406 9.12393 139.072 8.92638C139.764 8.70415 140.467 8.58068 141.184 8.55599C141.9 8.5313 142.579 8.56834 143.221 8.66711C143.64 8.74119 144.085 8.85231 144.554 9.00046C145.023 9.12393 145.455 9.29678 145.85 9.51901C146.27 9.74125 146.641 10.0252 146.962 10.3709C147.307 10.6919 147.554 11.0994 147.702 11.5932C147.801 11.9142 147.814 12.2229 147.739 12.5192C147.69 12.8155 147.567 13.0624 147.369 13.26C147.196 13.4575 146.962 13.6057 146.665 13.7044C146.394 13.8032 146.097 13.8279 145.776 13.7785C145.406 13.7044 145.06 13.5933 144.739 13.4452C144.418 13.297 144.097 13.1365 143.776 12.9637C143.455 12.7908 143.122 12.6427 142.776 12.5192C142.455 12.3957 142.11 12.334 141.739 12.334C141.171 12.3093 140.702 12.4081 140.332 12.6303C139.961 12.8525 139.702 13.1242 139.554 13.4452C139.43 13.7662 139.443 14.1119 139.591 14.4823C139.764 14.8527 140.109 15.1737 140.628 15.4453C141.097 15.6922 141.616 15.8898 142.184 16.0379C142.752 16.1861 143.307 16.3342 143.85 16.4824C144.418 16.6305 144.962 16.8034 145.48 17.0009C146.023 17.1985 146.505 17.4701 146.925 17.8158C147.739 18.4825 148.233 19.2603 148.406 20.1493C148.604 21.0382 148.554 21.9148 148.258 22.7791C147.962 23.6433 147.443 24.4088 146.702 25.0755C145.986 25.7422 145.134 26.1867 144.147 26.4089C143.431 26.5571 142.653 26.6311 141.813 26.6311C140.998 26.6311 140.183 26.5447 139.369 26.3719C138.578 26.199 137.813 25.9274 137.072 25.557C136.356 25.1866 135.751 24.7174 135.257 24.1495C134.912 23.7544 134.726 23.31 134.702 22.8161C134.702 22.2975 134.8 21.8531 134.998 21.4827C135.22 21.0876 135.529 20.816 135.924 20.6678C136.319 20.5197 136.764 20.6061 137.257 20.9271C137.652 21.1987 138.122 21.4703 138.665 21.742C139.208 21.9889 139.751 22.1864 140.295 22.3346C140.838 22.4827 141.356 22.5568 141.85 22.5568C142.369 22.5568 142.813 22.4457 143.184 22.2235C143.727 21.8778 144.011 21.4827 144.036 21.0382C144.06 20.569 143.9 20.211 143.554 19.9641Z" fill="#05FF00"/>
<path d="M126.734 19.9641C126.265 19.6678 125.734 19.4332 125.142 19.2603C124.574 19.0875 123.981 18.927 123.364 18.7788C122.771 18.6307 122.191 18.4702 121.623 18.2973C121.055 18.0998 120.536 17.8281 120.067 17.4824C119.055 16.717 118.462 15.7786 118.289 14.6675C118.141 13.5316 118.388 12.3957 119.03 11.2599C119.376 10.6672 119.833 10.1857 120.401 9.81533C120.968 9.42024 121.586 9.12393 122.252 8.92638C122.944 8.70415 123.648 8.58068 124.364 8.55599C125.08 8.5313 125.759 8.56834 126.401 8.66711C126.821 8.74119 127.265 8.85231 127.734 9.00046C128.203 9.12393 128.636 9.29678 129.031 9.51901C129.45 9.74125 129.821 10.0252 130.142 10.3709C130.488 10.6919 130.734 11.0994 130.883 11.5932C130.981 11.9142 130.994 12.2229 130.92 12.5192C130.87 12.8155 130.747 13.0624 130.549 13.26C130.376 13.4575 130.142 13.6057 129.846 13.7044C129.574 13.8032 129.278 13.8279 128.957 13.7785C128.586 13.7044 128.24 13.5933 127.919 13.4452C127.598 13.297 127.277 13.1365 126.956 12.9637C126.635 12.7908 126.302 12.6427 125.956 12.5192C125.635 12.3957 125.29 12.334 124.919 12.334C124.351 12.3093 123.882 12.4081 123.512 12.6303C123.141 12.8525 122.882 13.1242 122.734 13.4452C122.611 13.7662 122.623 14.1119 122.771 14.4823C122.944 14.8527 123.29 15.1737 123.808 15.4453C124.277 15.6922 124.796 15.8898 125.364 16.0379C125.932 16.1861 126.487 16.3342 127.031 16.4824C127.598 16.6305 128.142 16.8034 128.66 17.0009C129.203 17.1985 129.685 17.4701 130.105 17.8158C130.92 18.4825 131.414 19.2603 131.586 20.1493C131.784 21.0382 131.735 21.9148 131.438 22.7791C131.142 23.6433 130.623 24.4088 129.883 25.0755C129.166 25.7422 128.315 26.1867 127.327 26.4089C126.611 26.5571 125.833 26.6311 124.993 26.6311C124.179 26.6311 123.364 26.5447 122.549 26.3719C121.759 26.199 120.993 25.9274 120.252 25.557C119.536 25.1866 118.931 24.7174 118.437 24.1495C118.092 23.7544 117.907 23.31 117.882 22.8161C117.882 22.2975 117.981 21.8531 118.178 21.4827C118.4 21.0876 118.709 20.816 119.104 20.6678C119.499 20.5197 119.944 20.6061 120.438 20.9271C120.833 21.1987 121.302 21.4703 121.845 21.742C122.388 21.9889 122.932 22.1864 123.475 22.3346C124.018 22.4827 124.537 22.5568 125.03 22.5568C125.549 22.5568 125.993 22.4457 126.364 22.2235C126.907 21.8778 127.191 21.4827 127.216 21.0382C127.24 20.569 127.08 20.211 126.734 19.9641Z" fill="#05FF00"/>
<path d="M100.911 10.8896C101.652 10.5192 102.43 10.2599 103.244 10.1118C104.059 9.93892 104.862 9.90188 105.652 10.0007C106.467 10.0747 107.245 10.2846 107.985 10.6303C108.726 10.9513 109.418 11.4205 110.06 12.0378C110.702 12.6798 111.195 13.3836 111.541 14.149C111.887 14.9145 112.134 15.7664 112.282 16.7048C112.381 17.3468 112.541 17.9394 112.763 18.4826C112.986 19.0259 113.22 19.5691 113.467 20.1124C113.739 20.6556 113.986 21.1988 114.208 21.7421C114.455 22.2853 114.652 22.8533 114.801 23.4459C114.924 24.0138 114.875 24.5694 114.652 25.1127C114.455 25.6312 114.035 25.9522 113.393 26.0757C113.023 26.1498 112.665 26.1251 112.319 26.0016C111.998 25.8534 111.702 25.6559 111.43 25.409C111.158 25.1374 110.911 24.8534 110.689 24.5571C110.492 24.2361 110.307 23.9398 110.134 23.6681C109.566 24.4089 108.948 24.9892 108.282 25.409C107.615 25.8041 106.812 26.0633 105.874 26.1868C105.084 26.2856 104.331 26.3103 103.615 26.2609C102.899 26.2115 102.133 26.0757 101.318 25.8534C100.257 25.5818 99.3799 25.1127 98.6885 24.446C98.0218 23.7546 97.5033 22.9644 97.1329 22.0754C96.7872 21.1618 96.602 20.1864 96.5773 19.1493C96.5526 18.1122 96.6761 17.0875 96.9477 16.0751C97.2934 14.7417 97.8119 13.6552 98.5033 12.8156C99.1947 11.9761 99.9973 11.3341 100.911 10.8896ZM101.837 15.2232C101.491 15.5689 101.22 15.9763 101.022 16.4455C100.824 16.9146 100.701 17.4085 100.652 17.927C100.627 18.4456 100.676 18.9641 100.8 19.4827C100.923 20.0012 101.121 20.4581 101.392 20.8531C101.639 21.1988 102.059 21.4952 102.652 21.7421C103.244 21.9643 103.862 22.1001 104.504 22.1495C105.244 22.1989 105.886 22.0014 106.43 21.5569C106.998 21.1124 107.417 20.5568 107.689 19.8901C107.985 19.1987 108.121 18.4703 108.097 17.7048C108.072 16.9146 107.862 16.1986 107.467 15.5565C107.171 15.0874 106.775 14.7417 106.282 14.5194C105.812 14.2972 105.306 14.1861 104.763 14.1861C104.22 14.1614 103.676 14.2478 103.133 14.4454C102.615 14.6182 102.183 14.8775 101.837 15.2232Z" fill="#05FF00"/>
<path d="M93.7338 2.59267C94.6721 3.45691 95.3635 4.49401 95.808 5.70396C96.2525 6.88922 96.4253 8.07447 96.3265 9.25973C96.2278 10.3956 95.8697 11.445 95.2524 12.4081C94.6351 13.3464 93.6967 14.0625 92.4374 14.5563C91.4497 14.9761 90.4743 15.2724 89.5113 15.4453C88.5483 15.6181 87.4865 15.7539 86.3259 15.8527C85.8074 15.9021 85.3629 15.9391 84.9925 15.9638C84.6468 15.9638 84.2394 15.9762 83.7702 16.0009C83.6715 16.0009 83.4986 16.0009 83.2517 16.0009C83.0295 16.0009 82.8689 16.0132 82.7702 16.0379V23.705C82.6961 24.1742 82.5973 24.6557 82.4739 25.1496C82.3751 25.6434 82.0911 26.0262 81.622 26.2978C81.3503 26.4459 81.017 26.5324 80.6219 26.557C80.2268 26.5817 79.8688 26.5694 79.5478 26.52C79.2021 26.4706 78.9057 26.3842 78.6588 26.2607C78.4366 26.1126 78.2514 25.8656 78.1032 25.5199C78.0045 25.2977 77.9057 25.0508 77.8069 24.7792C77.7328 24.4829 77.6958 24.1248 77.6958 23.705V3.22233C77.6958 3.04948 77.7081 2.88898 77.7328 2.74082C77.7575 2.59267 77.7822 2.44451 77.8069 2.29635C77.8563 2.17289 77.8933 2.03708 77.918 1.88892C77.9427 1.74076 77.9798 1.60495 78.0292 1.48149C78.0785 1.35803 78.1279 1.24691 78.1773 1.14814C78.2514 1.04936 78.3378 0.962939 78.4366 0.88886C78.56 0.765396 78.7452 0.654279 78.9922 0.555507C79.2638 0.456736 79.6589 0.40735 80.1774 0.40735H80.2515C81.017 0.357965 81.8689 0.320926 82.8072 0.296234C83.7455 0.246847 84.5234 0.259193 85.1407 0.333272C85.4864 0.382657 85.8074 0.419697 86.1037 0.444391C86.4 0.444391 86.684 0.456737 86.9556 0.48143C87.2519 0.506122 87.5482 0.530815 87.8446 0.555507C88.1409 0.5802 88.4372 0.617239 88.7335 0.666626C88.9804 0.716011 89.2027 0.75305 89.4002 0.777744C89.6224 0.802437 89.8447 0.839475 90.0669 0.88886C90.2644 0.938247 90.4743 0.987633 90.6966 1.03702C90.9435 1.0864 91.1657 1.17283 91.3633 1.29629C91.8818 1.44445 92.3139 1.62965 92.6596 1.85188C93.0053 2.07412 93.3634 2.32104 93.7338 2.59267ZM91.5114 8.70414C91.5361 8.11151 91.4127 7.59296 91.141 7.14849C90.8941 6.70402 90.5361 6.33363 90.0669 6.03731C89.5977 5.741 89.0668 5.50642 88.4742 5.33357C87.8816 5.16072 87.289 5.03725 86.6963 4.96318C86.5482 4.96318 86.3383 4.96318 86.0667 4.96318C85.8197 4.93848 85.5481 4.92614 85.2518 4.92614C84.9555 4.90144 84.6715 4.8891 84.3999 4.8891C84.153 4.8644 83.9554 4.85206 83.8073 4.85206C83.6838 4.82737 83.5357 4.81502 83.3628 4.81502C83.19 4.81502 82.9924 4.81502 82.7702 4.81502C82.7949 5.5805 82.8072 6.32128 82.8072 7.03737C82.8072 7.72877 82.8072 8.4819 82.8072 9.29677C82.7825 9.74124 82.7702 10.1857 82.7702 10.6302C82.7702 11.0746 82.7702 11.5068 82.7702 11.9266L85.0666 11.8895C85.6592 11.8895 86.3136 11.8525 87.0297 11.7784C87.7458 11.7043 88.4248 11.5562 89.0668 11.3339C89.7089 11.1117 90.2521 10.7907 90.6966 10.3709C91.1657 9.95113 91.4374 9.39554 91.5114 8.70414Z" fill="#05FF00"/>
<path d="M74.61 10.2598C74.7087 10.5561 74.7334 10.8895 74.684 11.2599C74.6346 11.6303 74.5482 12.013 74.4248 12.4081C74.3013 12.7785 74.1531 13.1489 73.9803 13.5193C73.8321 13.865 73.6963 14.1736 73.5729 14.4452C72.9308 15.754 72.3259 17.038 71.7579 18.2973C71.19 19.5566 70.5233 20.9271 69.7578 22.4087C69.6097 22.705 69.4368 23.063 69.2393 23.4828C69.0664 23.8779 68.8689 24.273 68.6466 24.6681C68.4244 25.0385 68.1775 25.3842 67.9059 25.7052C67.6589 26.0262 67.3873 26.2607 67.091 26.4089C66.8441 26.5571 66.5971 26.6188 66.3502 26.5941C66.1527 26.6435 65.9304 26.5818 65.6835 26.4089C65.3872 26.2607 65.1032 26.0262 64.8316 25.7052C64.5847 25.3842 64.3501 25.0385 64.1278 24.6681C63.9056 24.273 63.6957 23.8779 63.4982 23.4828C63.3253 23.063 63.1648 22.705 63.0167 22.4087C62.7204 21.8407 62.4364 21.3098 62.1648 20.816C61.9178 20.3221 61.6462 19.7912 61.3499 19.2233C61.0783 18.6307 60.7696 17.964 60.4239 17.2232C60.0782 16.4577 59.6708 15.5317 59.2016 14.4452C59.0782 14.1489 58.9424 13.8403 58.7942 13.5193C58.646 13.1982 58.5102 12.8525 58.3868 12.4822C58.288 12.1118 58.2139 11.7414 58.1645 11.371C58.1398 10.9759 58.1645 10.5808 58.2386 10.1857C58.3127 9.81533 58.4979 9.51902 58.7942 9.29678C59.0905 9.07454 59.4239 8.92639 59.7943 8.85231C60.1647 8.77823 60.535 8.79058 60.9054 8.88935C61.2758 8.96343 61.5721 9.12393 61.7944 9.37086C62.0166 9.59309 62.2265 9.88941 62.424 10.2598C62.6216 10.6302 62.8068 11.0253 62.9796 11.4451C63.1772 11.8401 63.35 12.2476 63.4982 12.6673C63.671 13.0624 63.8315 13.4081 63.9797 13.7044C64.3254 14.4205 64.7081 15.1984 65.1279 16.0379C65.5724 16.8775 65.9675 17.6553 66.3132 18.3714C66.5601 17.8035 66.7823 17.3343 66.9799 16.9639C67.1774 16.5688 67.3626 16.1861 67.5355 15.8157C67.733 15.4453 67.9305 15.0379 68.1281 14.5934C68.3503 14.1489 68.6219 13.581 68.9429 12.8896C69.2393 12.2476 69.5356 11.6179 69.8319 11.0006C70.1529 10.3833 70.5356 9.84002 70.9801 9.37086C71.2023 9.12393 71.4863 8.96343 71.832 8.88935C72.1777 8.79058 72.5358 8.77823 72.9061 8.85231C73.2765 8.92639 73.6099 9.08689 73.9062 9.33382C74.2272 9.55605 74.4618 9.86471 74.61 10.2598Z" fill="#737373"/>
<path d="M52.1703 21.4086C52.4666 21.3345 52.7629 21.2851 53.0592 21.2604C53.3802 21.2358 53.6642 21.2728 53.9111 21.3716C54.1827 21.4703 54.405 21.6432 54.5778 21.8901C54.7507 22.1123 54.8371 22.4334 54.8371 22.8531C54.8371 23.1494 54.763 23.4334 54.6149 23.705C54.4667 23.9767 54.2815 24.2236 54.0593 24.4458C53.837 24.6681 53.5901 24.8656 53.3185 25.0385C53.0469 25.1866 52.7876 25.3101 52.5407 25.4088C51.8246 25.7298 50.9974 25.9768 50.059 26.1496C49.1454 26.3225 48.1947 26.3842 47.207 26.3348C45.8736 26.2854 44.5896 26.0262 43.3549 25.557C42.145 25.0631 41.1943 24.2606 40.5029 23.1494C39.8609 22.063 39.4782 20.853 39.3547 19.5196C39.2312 18.1862 39.293 16.9269 39.5399 15.7416C39.8115 14.3094 40.2683 13.1489 40.9104 12.2599C41.5771 11.3463 42.3672 10.6178 43.2809 10.0746C44.392 9.43259 45.639 9.09923 47.0218 9.07454C48.4046 9.04985 49.7257 9.32147 50.985 9.8894C51.8246 10.2598 52.5777 10.766 53.2444 11.408C53.9111 12.0253 54.4173 12.7785 54.763 13.6674C54.8618 13.8896 54.9359 14.1613 54.9853 14.4823C55.0593 14.8033 55.1087 15.149 55.1334 15.5194C55.1581 15.8651 55.1581 16.2108 55.1334 16.5565C55.1087 16.9022 55.047 17.2108 54.9482 17.4824C54.8001 17.9269 54.6149 18.2726 54.3926 18.5195C54.1704 18.7665 53.8864 18.9517 53.5407 19.0751C53.195 19.1986 52.7753 19.285 52.2814 19.3344C51.8122 19.3591 51.2443 19.3838 50.5776 19.4085C49.985 19.4332 49.4294 19.4455 48.9108 19.4455C48.3923 19.4455 47.8614 19.4455 47.3181 19.4455C46.7749 19.4208 46.207 19.4085 45.6143 19.4085C45.0464 19.3838 44.4044 19.3591 43.6883 19.3344C43.6142 19.8283 43.6759 20.2604 43.8735 20.6308C44.0957 20.9765 44.392 21.2728 44.7624 21.5197C45.1328 21.742 45.5526 21.9148 46.0218 22.0383C46.4909 22.1617 46.9477 22.2358 47.3922 22.2605C48.2318 22.3099 49.0343 22.2482 49.7998 22.0753C50.5652 21.8778 51.3554 21.6555 52.1703 21.4086ZM50.5776 14.223C50.1084 13.6798 49.6146 13.2847 49.096 13.0377C48.7009 12.8649 48.2812 12.7908 47.8367 12.8155C47.4169 12.8155 47.0095 12.8772 46.6144 13.0007C45.8983 13.1735 45.2933 13.5439 44.7995 14.1119C44.7501 14.1613 44.6637 14.2847 44.5402 14.4823C44.4167 14.6551 44.2933 14.8403 44.1698 15.0379C44.071 15.2354 43.997 15.4206 43.9476 15.5934C43.8982 15.7663 43.9229 15.8527 44.0216 15.8527H51.2813C51.2566 15.507 51.1949 15.2231 51.0961 15.0008C50.9974 14.7539 50.8245 14.4946 50.5776 14.223Z" fill="#737373"/>
<path d="M36.3025 11.5933C36.3518 12.4081 36.3395 13.2477 36.2654 14.1119C36.216 14.9762 36.1296 15.8158 36.0061 16.6306C35.7592 18.0381 35.3024 19.4086 34.6357 20.742C33.969 22.0754 32.9936 23.2113 31.7096 24.1496C30.3762 25.1373 28.8576 25.8163 27.1538 26.1867C25.45 26.5324 23.7585 26.7423 22.0794 26.8164C21.5115 26.8658 20.9312 26.8781 20.3385 26.8534C19.7706 26.8534 19.215 26.7917 18.6718 26.6682C18.2273 26.5942 17.894 26.4584 17.6717 26.2608C17.5483 26.1867 17.4495 26.088 17.3754 25.9645C17.3013 25.841 17.2396 25.7176 17.1902 25.5941C17.1161 25.4706 17.0544 25.3472 17.005 25.2237C16.9803 25.0756 16.9433 24.9274 16.8939 24.7792C16.8692 24.6558 16.8445 24.5447 16.8198 24.4459C16.8198 24.3224 16.8198 24.2113 16.8198 24.1125V2.96314C16.8198 2.79029 16.8198 2.62979 16.8198 2.48163C16.8198 2.33347 16.8445 2.18531 16.8939 2.03716C16.9433 1.69146 17.0174 1.40749 17.1161 1.18526C17.2149 0.888941 17.3507 0.679052 17.5236 0.555588C17.6717 0.432124 17.8199 0.345699 17.968 0.296314C18.1162 0.222235 18.252 0.160503 18.3755 0.111118C18.5236 0.061732 18.6718 0.061732 18.8199 0.111118C18.9928 0.135811 19.178 0.0987715 19.3755 0L25.5611 0.148157C27.1908 0.197542 28.6477 0.580281 29.9317 1.29637C31.2157 1.98777 32.3146 2.87671 33.2282 3.9632C34.1418 5.04968 34.8579 6.27198 35.3765 7.63008C35.895 8.96349 36.2037 10.2846 36.3025 11.5933ZM29.4132 18.6307C29.8823 17.8899 30.228 17.038 30.4503 16.075C30.6725 15.112 30.7713 14.1366 30.7466 13.1489C30.7219 12.1365 30.5861 11.1612 30.3391 10.2228C30.0922 9.25981 29.7465 8.40791 29.302 7.66712C28.9563 7.12388 28.5119 6.67941 27.9686 6.33371C27.4254 5.98801 26.8204 5.72873 26.1537 5.55589C25.487 5.35834 24.7709 5.22253 24.0054 5.14845C23.2647 5.07437 22.5362 5.03733 21.8201 5.03733C21.8448 5.75343 21.8572 6.44483 21.8572 7.11153C21.8572 7.77824 21.8572 8.48198 21.8572 9.22277C21.8325 10.1117 21.8201 10.976 21.8201 11.8155C21.8201 12.6551 21.8201 13.4699 21.8201 14.2601V21.8161C22.5856 21.7914 23.314 21.7544 24.0054 21.705C24.7215 21.6309 25.4006 21.4828 26.0426 21.2605C26.7093 21.0383 27.3143 20.7296 27.8575 20.3345C28.4255 19.9148 28.944 19.3468 29.4132 18.6307Z" fill="#737373"/>
<path d="M13.3052 4.4245C13.3052 4.7428 13.2627 5.0505 13.1779 5.34758C13.093 5.64467 12.9444 5.90993 12.7322 6.14335C12.6474 6.27067 12.4988 6.44044 12.2866 6.65264C12.0744 6.84362 11.7879 7.11949 11.4272 7.48023C10.5359 8.22295 9.68711 9.0081 8.88073 9.8357C8.09558 10.6633 7.33165 11.5333 6.58893 12.4458C6.33429 12.7429 6.07964 13.0506 5.825 13.3689C5.57035 13.6872 5.36876 14.0161 5.22022 14.3556C5.07167 14.6952 4.9974 15.0559 4.9974 15.4379C5.01862 15.8198 5.17778 16.2124 5.47486 16.6156C6.00537 17.3583 6.56771 18.0692 7.16188 18.7483C7.75605 19.4273 8.39267 20.0958 9.07172 20.7536C9.47491 21.178 9.87809 21.5918 10.2813 21.995C10.7057 22.3982 11.1089 22.8014 11.4908 23.2045C12.0001 23.7138 12.3078 24.255 12.4139 24.8279C12.52 25.3796 12.467 25.8677 12.2548 26.2921C12.0426 26.7165 11.6924 27.0242 11.2044 27.2152C10.7375 27.4062 10.1752 27.3744 9.51735 27.1197C9.17782 26.9712 8.8489 26.7696 8.5306 26.5149C8.21229 26.2815 7.9046 26.0162 7.60751 25.7192C7.31043 25.4009 7.02395 25.0826 6.74808 24.7642C6.47222 24.4459 6.21757 24.1489 5.98415 23.873C1.99472 19.4804 0 16.5732 0 15.1514C0 14.0692 0.774544 12.4989 2.32363 10.4405C2.9178 9.69776 3.57564 8.92322 4.29713 8.11685C5.01862 7.28925 5.825 6.47226 6.71626 5.66589C7.26798 5.11416 7.83032 4.57304 8.40328 4.04253C8.99745 3.4908 9.64467 3.02395 10.3449 2.64198C10.642 2.49344 10.9603 2.42978 11.2999 2.451C11.6606 2.451 11.9895 2.53588 12.2866 2.70565C12.5837 2.85419 12.8277 3.077 13.0187 3.37409C13.2097 3.67117 13.3052 4.02131 13.3052 4.4245Z" fill="#FF8A00"/>
</svg>
