<svg width="311" height="83" viewBox="0 0 311 83" fill="none" xmlns="http://www.w3.org/2000/svg">
<g filter="url(#filter0_d_328_1683)">
<path fill-rule="evenodd" clip-rule="evenodd" d="M291.13 35.9908L246.68 36.2422C246.082 36.2456 245.6 36.6925 245.604 37.2406C245.607 37.7886 246.095 38.2301 246.693 38.2267L291.143 37.9753C291.667 40.4209 294.027 42.259 296.846 42.243C300.036 42.225 302.606 39.841 302.587 36.9183C302.567 33.9955 299.965 31.6408 296.775 31.6589C293.956 31.6748 291.62 33.5395 291.13 35.9908Z" fill="black"/>
<path fill-rule="evenodd" clip-rule="evenodd" d="M222.398 20.6516C222.396 20.1036 222.879 19.6583 223.477 19.657L283.51 19.5263C284.108 19.525 284.594 19.9682 284.596 20.5163C284.598 21.0643 284.114 21.5096 283.516 21.5109L223.483 21.6416C222.885 21.6429 222.399 21.1997 222.398 20.6516Z" fill="black"/>
<path fill-rule="evenodd" clip-rule="evenodd" d="M283.668 21.3753C283.07 21.3851 282.577 20.9488 282.566 20.4009L282.295 6.50862C282.285 5.96068 282.761 5.50856 283.359 5.49878C283.957 5.48899 284.45 5.92525 284.461 6.47319L284.732 20.3654C284.742 20.9134 284.266 21.3655 283.668 21.3753Z" fill="black"/>
<path fill-rule="evenodd" clip-rule="evenodd" d="M294.494 5.7871H282.785C282.168 5.7871 281.667 6.22941 281.667 6.77504C281.667 7.32066 282.168 7.76297 282.785 7.76297H294.494C295.017 10.2007 297.44 12.044 300.351 12.044C303.643 12.044 306.312 9.68502 306.312 6.77504C306.312 3.86505 303.643 1.50604 300.351 1.50604C297.44 1.50604 295.017 3.34934 294.494 5.7871Z" fill="black"/>
<path fill-rule="evenodd" clip-rule="evenodd" d="M222.403 54.3836C222.402 54.9317 222.885 55.3771 223.483 55.3785L283.516 55.5199C284.114 55.5213 284.6 55.0782 284.602 54.5302C284.603 53.9821 284.119 53.5367 283.521 53.5353L223.489 53.3939C222.891 53.3925 222.405 53.8356 222.403 54.3836Z" fill="black"/>
<path fill-rule="evenodd" clip-rule="evenodd" d="M283.673 53.6596C283.075 53.6498 282.582 54.086 282.571 54.634L282.3 68.5262C282.29 69.0742 282.766 69.5263 283.364 69.5361C283.962 69.5459 284.455 69.1096 284.466 68.5617L284.737 54.6694C284.747 54.1215 284.271 53.6693 283.673 53.6596Z" fill="black"/>
<path fill-rule="evenodd" clip-rule="evenodd" d="M294.494 70.2373L282.785 70.2373C282.168 70.2373 281.667 69.7949 281.667 69.2493C281.667 68.7037 282.168 68.2614 282.785 68.2614L294.494 68.2614C295.017 65.8236 297.44 63.9803 300.351 63.9803C303.643 63.9803 306.312 66.3393 306.312 69.2493C306.312 72.1593 303.643 74.5183 300.351 74.5183C297.44 74.5183 295.017 72.675 294.494 70.2373Z" fill="black"/>
</g>
<g filter="url(#filter1_d_328_1683)">
<path fill-rule="evenodd" clip-rule="evenodd" d="M19.3877 38.1947L63.8378 37.9433C64.4359 37.9399 64.9177 37.4929 64.9141 36.9449C64.9104 36.3969 64.4225 35.9554 63.8244 35.9588L19.3744 36.2102C18.851 33.7646 16.4908 31.9265 13.6711 31.9425C10.4813 31.9605 7.91137 34.3445 7.93106 37.2672C7.95075 40.1899 10.5526 42.5447 13.7424 42.5266C16.5621 42.5107 18.8973 40.646 19.3877 38.1947Z" fill="black"/>
<path fill-rule="evenodd" clip-rule="evenodd" d="M88.121 53.5338C88.1227 54.0819 87.6392 54.5272 87.0411 54.5285L27.0086 54.6591C26.4105 54.6604 25.9243 54.2172 25.9226 53.6692C25.921 53.1212 26.4045 52.6759 27.0026 52.6746L87.0351 52.5439C87.6332 52.5426 88.1194 52.9858 88.121 53.5338Z" fill="black"/>
<path fill-rule="evenodd" clip-rule="evenodd" d="M26.8498 52.81C27.4478 52.8002 27.9413 53.2364 27.952 53.7844L28.2227 67.6766C28.2334 68.2246 27.7573 68.6767 27.1592 68.6865C26.5612 68.6962 26.0678 68.26 26.0571 67.7121L25.7864 53.8198C25.7757 53.2719 26.2518 52.8197 26.8498 52.81Z" fill="black"/>
<path fill-rule="evenodd" clip-rule="evenodd" d="M15.8187 68.7311L27.5272 68.7311C28.1446 68.7311 28.645 68.2888 28.645 67.7432C28.645 67.1975 28.1446 66.7552 27.5272 66.7552L15.8187 66.7552C15.2955 64.3175 12.8722 62.4742 9.96169 62.4742C6.66918 62.4742 4.00006 64.8332 4.00006 67.7432C4.00006 70.6531 6.66918 73.0121 9.96169 73.0121C12.8721 73.0121 15.2955 71.1688 15.8187 68.7311Z" fill="black"/>
<path fill-rule="evenodd" clip-rule="evenodd" d="M88.1154 19.8001C88.1169 19.2521 87.6333 18.8067 87.0352 18.8052L27.0027 18.6638C26.4046 18.6624 25.9186 19.1055 25.917 19.6535C25.9155 20.2016 26.3991 20.647 26.9972 20.6484L87.0297 20.7898C87.6278 20.7912 88.1139 20.3481 88.1154 19.8001Z" fill="black"/>
<path fill-rule="evenodd" clip-rule="evenodd" d="M26.844 20.524C27.442 20.5338 27.9354 20.0975 27.9461 19.5496L28.2168 5.65729C28.2275 5.10936 27.7514 4.65724 27.1534 4.64745C26.5554 4.63767 26.0619 5.07393 26.0513 5.62186L25.7805 19.5141C25.7698 20.0621 26.246 20.5142 26.844 20.524Z" fill="black"/>
<path fill-rule="evenodd" clip-rule="evenodd" d="M15.8187 4.28093H27.5272C28.1446 4.28093 28.645 4.72325 28.645 5.26887C28.645 5.81449 28.1446 6.25681 27.5272 6.25681H15.8187C15.2955 8.69457 12.8721 10.5379 9.96169 10.5379C6.66918 10.5379 4.00006 8.17885 4.00006 5.26887C4.00006 2.35889 6.66918 -0.00012207 9.96169 -0.00012207C12.8721 -0.00012207 15.2955 1.84317 15.8187 4.28093Z" fill="black"/>
</g>
<path d="M230.093 26.3957C230.093 26.0007 230.195 25.6577 230.4 25.3666C230.604 25.0755 230.865 24.8572 231.182 24.7117C231.5 24.5454 231.84 24.4622 232.203 24.4622C232.589 24.4414 232.941 24.5038 233.259 24.6493C234.007 25.0236 234.688 25.481 235.301 26.0215C235.936 26.5413 236.549 27.0714 237.139 27.612C238.092 28.402 238.954 29.2025 239.725 30.0133C240.497 30.8034 241.2 31.5622 241.836 32.2899C243.492 34.3066 244.32 35.8451 244.32 36.9054C244.32 38.2984 242.187 41.1467 237.922 45.4504C237.672 45.7207 237.4 46.0117 237.105 46.3236C236.81 46.6355 236.503 46.9473 236.186 47.2592C235.868 47.5503 235.539 47.8101 235.199 48.0388C234.858 48.2883 234.507 48.4858 234.144 48.6314C233.44 48.8809 232.827 48.912 232.306 48.7249C231.806 48.5378 231.443 48.2363 231.216 47.8205C230.99 47.4047 230.933 46.9265 231.046 46.386C231.16 45.8246 231.489 45.2945 232.033 44.7955C232.442 44.4005 232.862 44.0054 233.293 43.6104C233.746 43.2154 234.189 42.81 234.62 42.3942C235.346 41.7497 236.027 41.0947 236.662 40.4294C237.298 39.7641 237.899 39.0677 238.466 38.34C238.761 37.945 238.92 37.5603 238.943 37.1861C238.965 36.8119 238.897 36.4584 238.738 36.1258C238.58 35.7931 238.364 35.4709 238.092 35.159C237.819 34.8472 237.547 34.5457 237.275 34.2546C236.481 33.3606 235.652 32.5082 234.79 31.6974C233.951 30.8865 233.054 30.1173 232.101 29.3896C231.716 29.0362 231.409 28.7659 231.182 28.5788C230.956 28.3709 230.797 28.2045 230.706 28.0798C230.479 27.8511 230.32 27.5912 230.229 27.3001C230.139 27.0091 230.093 26.7076 230.093 26.3957Z" fill="white"/>
<path d="M221.39 41.621C220.888 41.3307 220.321 41.1008 219.687 40.9315C219.08 40.7621 218.446 40.6049 217.786 40.4597C217.152 40.3146 216.532 40.1573 215.924 39.988C215.317 39.7944 214.763 39.5283 214.261 39.1896C213.178 38.4396 212.545 37.5203 212.36 36.4316C212.202 35.3188 212.466 34.2059 213.152 33.093C213.522 32.5124 214.01 32.0406 214.617 31.6777C215.225 31.2907 215.885 31.0003 216.598 30.8068C217.337 30.5891 218.09 30.4681 218.855 30.4439C219.621 30.4197 220.347 30.456 221.034 30.5528C221.482 30.6253 221.958 30.7342 222.459 30.8794C222.961 31.0003 223.423 31.1697 223.846 31.3874C224.294 31.6052 224.69 31.8834 225.034 32.2221C225.403 32.5366 225.667 32.9358 225.826 33.4196C225.931 33.7341 225.945 34.0365 225.865 34.3268C225.813 34.6172 225.681 34.8591 225.469 35.0526C225.285 35.2462 225.034 35.3913 224.717 35.4881C224.426 35.5849 224.11 35.6091 223.766 35.5607C223.37 35.4881 223.001 35.3792 222.657 35.2341C222.314 35.0889 221.971 34.9317 221.628 34.7623C221.284 34.593 220.928 34.4478 220.558 34.3268C220.215 34.2059 219.845 34.1454 219.449 34.1454C218.842 34.1212 218.34 34.218 217.944 34.4357C217.548 34.6534 217.271 34.9196 217.113 35.2341C216.981 35.5486 216.994 35.8873 217.152 36.2502C217.337 36.6131 217.707 36.9276 218.261 37.1937C218.763 37.4356 219.317 37.6292 219.925 37.7743C220.532 37.9195 221.126 38.0646 221.707 38.2098C222.314 38.3549 222.895 38.5243 223.449 38.7178C224.03 38.9114 224.545 39.1775 224.994 39.5162C225.865 40.1694 226.393 40.9315 226.578 41.8024C226.79 42.6734 226.737 43.5322 226.42 44.3789C226.103 45.2257 225.549 45.9757 224.756 46.6289C223.991 47.2821 223.08 47.7176 222.024 47.9353C221.258 48.0804 220.426 48.153 219.529 48.153C218.657 48.153 217.786 48.0683 216.915 47.899C216.07 47.7296 215.251 47.4635 214.459 47.1006C213.693 46.7377 213.046 46.2781 212.518 45.7216C212.149 45.3346 211.951 44.8991 211.924 44.4152C211.924 43.9072 212.03 43.4717 212.241 43.1088C212.479 42.7217 212.809 42.4556 213.231 42.3105C213.654 42.1653 214.129 42.25 214.657 42.5645C215.08 42.8306 215.581 43.0967 216.162 43.3629C216.743 43.6048 217.324 43.7983 217.905 43.9435C218.486 44.0886 219.04 44.1612 219.568 44.1612C220.123 44.1612 220.598 44.0523 220.994 43.8346C221.575 43.4959 221.878 43.1088 221.905 42.6734C221.931 42.2137 221.76 41.8629 221.39 41.621Z" fill="white"/>
<path d="M203.404 41.621C202.903 41.3307 202.335 41.1008 201.701 40.9315C201.094 40.7621 200.46 40.6049 199.8 40.4597C199.166 40.3146 198.546 40.1573 197.939 39.988C197.331 39.7944 196.777 39.5283 196.275 39.1896C195.193 38.4396 194.559 37.5203 194.374 36.4316C194.216 35.3188 194.48 34.2059 195.166 33.093C195.536 32.5124 196.024 32.0406 196.632 31.6777C197.239 31.2907 197.899 31.0003 198.612 30.8068C199.351 30.5891 200.104 30.4681 200.869 30.4439C201.635 30.4197 202.361 30.456 203.048 30.5528C203.497 30.6253 203.972 30.7342 204.474 30.8794C204.975 31.0003 205.437 31.1697 205.86 31.3874C206.309 31.6052 206.705 31.8834 207.048 32.2221C207.418 32.5366 207.682 32.9358 207.84 33.4196C207.946 33.7341 207.959 34.0365 207.88 34.3268C207.827 34.6172 207.695 34.8591 207.484 35.0526C207.299 35.2462 207.048 35.3913 206.731 35.4881C206.441 35.5849 206.124 35.6091 205.78 35.5607C205.384 35.4881 205.015 35.3792 204.672 35.2341C204.328 35.0889 203.985 34.9317 203.642 34.7623C203.299 34.593 202.942 34.4478 202.572 34.3268C202.229 34.2059 201.86 34.1454 201.464 34.1454C200.856 34.1212 200.355 34.218 199.958 34.4357C199.562 34.6534 199.285 34.9196 199.127 35.2341C198.995 35.5486 199.008 35.8873 199.166 36.2502C199.351 36.6131 199.721 36.9276 200.275 37.1937C200.777 37.4356 201.331 37.6292 201.939 37.7743C202.546 37.9195 203.14 38.0646 203.721 38.2098C204.328 38.3549 204.909 38.5243 205.464 38.7178C206.045 38.9114 206.559 39.1775 207.008 39.5162C207.88 40.1694 208.408 40.9315 208.592 41.8024C208.804 42.6734 208.751 43.5322 208.434 44.3789C208.117 45.2257 207.563 45.9757 206.771 46.6289C206.005 47.2821 205.094 47.7176 204.038 47.9353C203.272 48.0804 202.44 48.153 201.543 48.153C200.671 48.153 199.8 48.0683 198.929 47.899C198.084 47.7296 197.265 47.4635 196.473 47.1006C195.708 46.7377 195.061 46.2781 194.533 45.7216C194.163 45.3346 193.965 44.8991 193.938 44.4152C193.938 43.9072 194.044 43.4717 194.255 43.1088C194.493 42.7217 194.823 42.4556 195.245 42.3105C195.668 42.1653 196.143 42.25 196.671 42.5645C197.094 42.8306 197.595 43.0967 198.176 43.3629C198.757 43.6048 199.338 43.7983 199.919 43.9435C200.5 44.0886 201.054 44.1612 201.582 44.1612C202.137 44.1612 202.612 44.0523 203.008 43.8346C203.589 43.4959 203.893 43.1088 203.919 42.6734C203.945 42.2137 203.774 41.8629 203.404 41.621Z" fill="white"/>
<path d="M175.79 32.7284C176.583 32.3655 177.414 32.1114 178.286 31.9663C179.157 31.7969 180.015 31.7606 180.86 31.8574C181.731 31.93 182.563 32.1356 183.355 32.4743C184.147 32.7888 184.886 33.2485 185.573 33.8533C186.259 34.4823 186.788 35.1718 187.157 35.9218C187.527 36.6718 187.791 37.5064 187.949 38.4258C188.055 39.0548 188.227 39.6354 188.464 40.1676C188.702 40.6999 188.953 41.2321 189.217 41.7644C189.507 42.2966 189.771 42.8288 190.009 43.3611C190.273 43.8933 190.484 44.4498 190.642 45.0304C190.775 45.5868 190.722 46.1312 190.484 46.6634C190.273 47.1714 189.824 47.486 189.137 47.6069C188.741 47.6795 188.359 47.6553 187.989 47.5343C187.646 47.3892 187.329 47.1956 187.038 46.9537C186.748 46.6876 186.484 46.4094 186.246 46.1191C186.035 45.8046 185.837 45.5142 185.652 45.2481C185.045 45.9739 184.385 46.5424 183.672 46.9537C182.959 47.3408 182.101 47.5948 181.098 47.7158C180.253 47.8126 179.447 47.8367 178.682 47.7884C177.916 47.74 177.097 47.6069 176.226 47.3892C175.091 47.1231 174.153 46.6634 173.414 46.0102C172.701 45.3328 172.147 44.5586 171.751 43.6877C171.381 42.7926 171.183 41.8369 171.157 40.8208C171.13 39.8047 171.262 38.8007 171.553 37.8088C171.922 36.5024 172.477 35.4379 173.216 34.6154C173.955 33.7928 174.814 33.1638 175.79 32.7284ZM176.781 36.9742C176.411 37.3129 176.121 37.7121 175.909 38.1717C175.698 38.6314 175.566 39.1152 175.513 39.6233C175.487 40.1313 175.54 40.6394 175.672 41.1474C175.804 41.6555 176.015 42.1031 176.305 42.4901C176.569 42.8288 177.018 43.1192 177.652 43.3611C178.286 43.5788 178.946 43.7119 179.632 43.7603C180.424 43.8087 181.111 43.6151 181.692 43.1796C182.299 42.7442 182.748 42.1998 183.038 41.5466C183.355 40.8692 183.5 40.1555 183.474 39.4056C183.448 38.6314 183.223 37.9298 182.801 37.3008C182.484 36.8411 182.061 36.5024 181.533 36.2847C181.032 36.067 180.49 35.9581 179.909 35.9581C179.329 35.9339 178.748 36.0186 178.167 36.2121C177.612 36.3815 177.15 36.6355 176.781 36.9742Z" fill="white"/>
<path d="M168.118 24.6016C169.121 25.4483 169.861 26.4644 170.336 27.6499C170.811 28.8111 170.996 29.9724 170.89 31.1336C170.785 32.2465 170.402 33.2747 169.742 34.2182C169.082 35.1376 168.078 35.8391 166.732 36.323C165.676 36.7343 164.633 37.0246 163.603 37.1939C162.573 37.3633 161.438 37.4963 160.197 37.5931C159.642 37.6415 159.167 37.6778 158.771 37.702C158.401 37.702 157.966 37.7141 157.464 37.7383C157.358 37.7383 157.174 37.7383 156.91 37.7383C156.672 37.7383 156.5 37.7504 156.395 37.7746V45.2864C156.315 45.7461 156.21 46.2178 156.078 46.7017C155.972 47.1856 155.669 47.5605 155.167 47.8267C154.876 47.9718 154.52 48.0565 154.098 48.0807C153.675 48.1049 153.292 48.0928 152.949 48.0444C152.579 47.996 152.263 47.9113 151.998 47.7904C151.761 47.6452 151.563 47.4033 151.404 47.0646C151.299 46.8469 151.193 46.6049 151.088 46.3388C151.008 46.0485 150.969 45.6977 150.969 45.2864V25.2185C150.969 25.0492 150.982 24.8919 151.008 24.7467C151.035 24.6016 151.061 24.4564 151.088 24.3113C151.14 24.1903 151.18 24.0573 151.206 23.9121C151.233 23.7669 151.272 23.6339 151.325 23.5129C151.378 23.392 151.431 23.2831 151.484 23.1863C151.563 23.0895 151.655 23.0049 151.761 22.9323C151.893 22.8113 152.091 22.7025 152.355 22.6057C152.645 22.5089 153.068 22.4605 153.622 22.4605H153.702C154.52 22.4121 155.431 22.3759 156.434 22.3517C157.438 22.3033 158.269 22.3154 158.929 22.388C159.299 22.4363 159.642 22.4726 159.959 22.4968C160.276 22.4968 160.58 22.5089 160.87 22.5331C161.187 22.5573 161.504 22.5815 161.821 22.6057C162.137 22.6299 162.454 22.6662 162.771 22.7146C163.035 22.7629 163.273 22.7992 163.484 22.8234C163.722 22.8476 163.959 22.8839 164.197 22.9323C164.408 22.9807 164.633 23.0291 164.87 23.0774C165.134 23.1258 165.372 23.2105 165.583 23.3315C166.138 23.4766 166.6 23.6581 166.969 23.8758C167.339 24.0935 167.722 24.3355 168.118 24.6016ZM165.742 30.5893C165.768 30.0087 165.636 29.5006 165.346 29.0652C165.081 28.6297 164.699 28.2668 164.197 27.9765C163.695 27.6862 163.128 27.4563 162.494 27.287C161.86 27.1176 161.227 26.9967 160.593 26.9241C160.434 26.9241 160.21 26.9241 159.92 26.9241C159.656 26.8999 159.365 26.8878 159.048 26.8878C158.731 26.8636 158.428 26.8515 158.137 26.8515C157.873 26.8273 157.662 26.8152 157.504 26.8152C157.372 26.791 157.213 26.7789 157.028 26.7789C156.844 26.7789 156.632 26.7789 156.395 26.7789C156.421 27.5289 156.434 28.2547 156.434 28.9563C156.434 29.6337 156.434 30.3716 156.434 31.1699C156.408 31.6054 156.395 32.0409 156.395 32.4763C156.395 32.9118 156.395 33.3352 156.395 33.7465L158.85 33.7102C159.484 33.7102 160.184 33.6739 160.949 33.6013C161.715 33.5287 162.441 33.3836 163.128 33.1658C163.814 32.9481 164.395 32.6336 164.87 32.2223C165.372 31.811 165.662 31.2667 165.742 30.5893Z" fill="white"/>
<path d="M147.668 32.1133C147.774 32.4036 147.8 32.7302 147.747 33.0931C147.694 33.456 147.602 33.831 147.47 34.2181C147.338 34.581 147.179 34.9439 146.995 35.3068C146.836 35.6455 146.691 35.9479 146.559 36.214C145.872 37.4962 145.226 38.7542 144.618 39.9881C144.011 41.2219 143.298 42.5646 142.48 44.0162C142.321 44.3065 142.136 44.6573 141.925 45.0686C141.74 45.4557 141.529 45.8427 141.291 46.2298C141.054 46.5927 140.79 46.9314 140.499 47.2459C140.235 47.5604 139.945 47.7903 139.628 47.9354C139.364 48.0806 139.1 48.1411 138.836 48.1169C138.625 48.1652 138.387 48.1048 138.123 47.9354C137.806 47.7903 137.503 47.5604 137.212 47.2459C136.948 46.9314 136.697 46.5927 136.46 46.2298C136.222 45.8427 135.998 45.4557 135.786 45.0686C135.601 44.6573 135.43 44.3065 135.271 44.0162C134.955 43.4597 134.651 42.9396 134.361 42.4557C134.096 41.9719 133.806 41.4517 133.489 40.8953C133.199 40.3147 132.869 39.6615 132.499 38.9357C132.129 38.1857 131.694 37.2785 131.192 36.214C131.06 35.9237 130.915 35.6213 130.756 35.3068C130.598 34.9923 130.453 34.6536 130.321 34.2907C130.215 33.9278 130.136 33.5649 130.083 33.202C130.057 32.8149 130.083 32.4278 130.162 32.0408C130.242 31.6779 130.44 31.3875 130.756 31.1698C131.073 30.9521 131.43 30.8069 131.826 30.7343C132.222 30.6618 132.618 30.6739 133.014 30.7706C133.41 30.8432 133.727 31.0005 133.964 31.2424C134.202 31.4601 134.427 31.7504 134.638 32.1133C134.849 32.4762 135.047 32.8633 135.232 33.2746C135.443 33.6617 135.628 34.0608 135.786 34.4721C135.971 34.8592 136.143 35.1979 136.301 35.4882C136.671 36.1898 137.08 36.9519 137.529 37.7744C138.004 38.597 138.427 39.3591 138.796 40.0607C139.06 39.5042 139.298 39.0446 139.509 38.6817C139.72 38.2946 139.918 37.9196 140.103 37.5567C140.315 37.1938 140.526 36.7946 140.737 36.3592C140.975 35.9237 141.265 35.3673 141.608 34.6899C141.925 34.0608 142.242 33.4439 142.559 32.8391C142.902 32.2343 143.311 31.7021 143.787 31.2424C144.024 31.0005 144.328 30.8432 144.698 30.7706C145.067 30.6739 145.45 30.6618 145.846 30.7343C146.242 30.8069 146.599 30.9642 146.915 31.2061C147.259 31.4238 147.51 31.7262 147.668 32.1133Z" fill="white"/>
<path d="M123.673 43.0355C123.99 42.9629 124.307 42.9145 124.624 42.8904C124.967 42.8662 125.271 42.9025 125.535 42.9992C125.825 43.096 126.063 43.2653 126.248 43.5073C126.432 43.725 126.525 44.0395 126.525 44.4508C126.525 44.7411 126.446 45.0193 126.287 45.2854C126.129 45.5516 125.931 45.7935 125.693 46.0112C125.456 46.229 125.191 46.4225 124.901 46.5919C124.611 46.737 124.333 46.858 124.069 46.9547C123.304 47.2693 122.419 47.5112 121.416 47.6805C120.439 47.8499 119.422 47.9104 118.366 47.862C116.94 47.8136 115.567 47.5596 114.247 47.0999C112.953 46.616 111.937 45.8298 111.198 44.7411C110.511 43.6766 110.102 42.4912 109.97 41.1848C109.838 39.8784 109.904 38.6445 110.168 37.4833C110.458 36.0801 110.947 34.943 111.633 34.0721C112.346 33.177 113.191 32.4633 114.168 31.931C115.356 31.302 116.69 30.9754 118.168 30.9512C119.647 30.927 121.059 31.1931 122.406 31.7496C123.304 32.1125 124.109 32.6084 124.822 33.2374C125.535 33.8423 126.076 34.5801 126.446 35.4511C126.551 35.6688 126.63 35.9349 126.683 36.2494C126.763 36.5639 126.815 36.9026 126.842 37.2655C126.868 37.6042 126.868 37.9429 126.842 38.2816C126.815 38.6203 126.749 38.9227 126.644 39.1889C126.485 39.6243 126.287 39.963 126.05 40.205C125.812 40.4469 125.508 40.6283 125.139 40.7493C124.769 40.8703 124.32 40.9549 123.792 41.0033C123.29 41.0275 122.683 41.0517 121.97 41.0759C121.337 41.1001 120.742 41.1122 120.188 41.1122C119.634 41.1122 119.066 41.1122 118.485 41.1122C117.904 41.088 117.297 41.0759 116.663 41.0759C116.056 41.0517 115.369 41.0275 114.604 41.0033C114.524 41.4872 114.59 41.9106 114.802 42.2734C115.039 42.6121 115.356 42.9025 115.752 43.1444C116.148 43.3621 116.597 43.5315 117.099 43.6524C117.6 43.7734 118.089 43.846 118.564 43.8702C119.462 43.9186 120.32 43.8581 121.139 43.6887C121.957 43.4952 122.802 43.2774 123.673 43.0355ZM121.97 35.9954C121.469 35.4632 120.941 35.0761 120.386 34.8342C119.964 34.6648 119.515 34.5922 119.039 34.6164C118.591 34.6164 118.155 34.6769 117.732 34.7979C116.967 34.9672 116.32 35.3301 115.792 35.8865C115.739 35.9349 115.647 36.0559 115.515 36.2494C115.383 36.4188 115.251 36.6002 115.119 36.7938C115.013 36.9873 114.934 37.1688 114.881 37.3381C114.828 37.5075 114.854 37.5921 114.96 37.5921H122.723C122.696 37.2534 122.63 36.9752 122.525 36.7575C122.419 36.5156 122.234 36.2615 121.97 35.9954Z" fill="white"/>
<path d="M106.706 33.4191C106.759 34.2175 106.746 35.04 106.666 35.8868C106.614 36.7335 106.521 37.5561 106.389 38.3544C106.125 39.7334 105.637 41.0761 104.924 42.3825C104.211 43.689 103.168 44.8018 101.795 45.7211C100.369 46.6889 98.7453 47.3542 96.9234 47.7171C95.1016 48.0558 93.2929 48.2614 91.4975 48.334C90.8902 48.3824 90.2697 48.3945 89.636 48.3703C89.0288 48.3703 88.4347 48.3098 87.8538 48.1888C87.3785 48.1162 87.0221 47.9832 86.7845 47.7896C86.6524 47.7171 86.5468 47.6203 86.4676 47.4993C86.3884 47.3784 86.3224 47.2574 86.2696 47.1364C86.1904 47.0155 86.1244 46.8945 86.0716 46.7735C86.0452 46.6284 86.0056 46.4832 85.9527 46.3381C85.9263 46.2171 85.8999 46.1082 85.8735 46.0115C85.8735 45.8905 85.8735 45.7816 85.8735 45.6849V24.9637C85.8735 24.7944 85.8735 24.6371 85.8735 24.492C85.8735 24.3468 85.8999 24.2017 85.9527 24.0565C86.0056 23.7178 86.0848 23.4396 86.1904 23.2219C86.296 22.9315 86.4412 22.7259 86.626 22.6049C86.7845 22.484 86.9429 22.3993 87.1013 22.3509C87.2597 22.2783 87.4049 22.2179 87.537 22.1695C87.6954 22.1211 87.8538 22.1211 88.0122 22.1695C88.1971 22.1937 88.3951 22.1574 88.6063 22.0606L95.2204 22.2058C96.963 22.2541 98.5209 22.6291 99.8938 23.3307C101.267 24.0081 102.442 24.8791 103.419 25.9435C104.396 27.008 105.161 28.2056 105.716 29.5362C106.27 30.8426 106.6 32.1369 106.706 33.4191ZM99.3394 40.3141C99.841 39.5883 100.211 38.7536 100.448 37.8101C100.686 36.8666 100.792 35.911 100.765 34.9433C100.739 33.9514 100.594 32.9957 100.33 32.0764C100.065 31.1329 99.6958 30.2983 99.2206 29.5725C98.8509 29.0402 98.3756 28.6048 97.7948 28.2661C97.2139 27.9274 96.567 27.6733 95.8541 27.504C95.1412 27.3104 94.3755 27.1774 93.557 27.1048C92.7649 27.0322 91.986 26.9959 91.2203 26.9959C91.2467 27.6975 91.2599 28.3749 91.2599 29.0281C91.2599 29.6813 91.2599 30.3708 91.2599 31.0966C91.2335 31.9676 91.2203 32.8143 91.2203 33.6369C91.2203 34.4594 91.2203 35.2578 91.2203 36.0319V43.4349C92.0388 43.4107 92.8177 43.3745 93.557 43.3261C94.3227 43.2535 95.0488 43.1083 95.7353 42.8906C96.4482 42.6729 97.0951 42.3705 97.6759 41.9834C98.2832 41.5721 98.8377 41.0157 99.3394 40.3141Z" fill="white"/>
<path d="M82.1162 26.3957C82.1162 26.7076 82.0708 27.0091 81.98 27.3001C81.8893 27.5912 81.7304 27.8511 81.5035 28.0798C81.4128 28.2045 81.2539 28.3709 81.027 28.5788C80.8001 28.7659 80.4938 29.0362 80.108 29.3896C79.155 30.1173 78.2474 30.8865 77.3852 31.6974C76.5456 32.5082 75.7288 33.3606 74.9346 34.2546C74.6623 34.5457 74.39 34.8472 74.1177 35.159C73.8454 35.4709 73.6299 35.7931 73.471 36.1258C73.3122 36.4584 73.2328 36.8119 73.2328 37.1861C73.2555 37.5603 73.4257 37.945 73.7433 38.34C74.3106 39.0677 74.9119 39.7641 75.5472 40.4294C76.1826 41.0947 76.8633 41.7497 77.5894 42.3942C78.0205 42.81 78.4516 43.2154 78.8828 43.6104C79.3366 44.0054 79.7677 44.4005 80.1761 44.7955C80.7207 45.2945 81.0497 45.8246 81.1632 46.386C81.2766 46.9265 81.2199 47.4047 80.993 47.8205C80.7661 48.2363 80.3917 48.5378 79.8698 48.7249C79.3706 48.912 78.7693 48.8809 78.0659 48.6314C77.7028 48.4858 77.3511 48.2883 77.0108 48.0388C76.6704 47.8101 76.3414 47.5503 76.0237 47.2592C75.7061 46.9473 75.3997 46.6355 75.1048 46.3236C74.8098 46.0117 74.5375 45.7207 74.2879 45.4504C70.0221 41.1467 67.8892 38.2984 67.8892 36.9054C67.8892 35.8451 68.7174 34.3066 70.3738 32.2899C71.0091 31.5622 71.7125 30.8034 72.484 30.0133C73.2555 29.2025 74.1177 28.402 75.0707 27.612C75.6607 27.0714 76.262 26.5413 76.8746 26.0215C77.51 25.481 78.202 25.0236 78.9508 24.6493C79.2685 24.5038 79.6089 24.4414 79.9719 24.4622C80.3576 24.4622 80.7093 24.5454 81.027 24.7117C81.3447 24.8572 81.6056 25.0755 81.8098 25.3666C82.0141 25.6577 82.1162 26.0007 82.1162 26.3957Z" fill="white"/>
<defs>
<filter id="filter0_d_328_1683" x="218.397" y="1.50604" width="91.915" height="81.0123" filterUnits="userSpaceOnUse" color-interpolation-filters="sRGB">
<feFlood flood-opacity="0" result="BackgroundImageFix"/>
<feColorMatrix in="SourceAlpha" type="matrix" values="0 0 0 0 0 0 0 0 0 0 0 0 0 0 0 0 0 0 127 0" result="hardAlpha"/>
<feOffset dy="4"/>
<feGaussianBlur stdDeviation="2"/>
<feComposite in2="hardAlpha" operator="out"/>
<feColorMatrix type="matrix" values="0 0 0 0 0 0 0 0 0 0 0 0 0 0 0 0 0 0 0.25 0"/>
<feBlend mode="normal" in2="BackgroundImageFix" result="effect1_dropShadow_328_1683"/>
<feBlend mode="normal" in="SourceGraphic" in2="effect1_dropShadow_328_1683" result="shape"/>
</filter>
<filter id="filter1_d_328_1683" x="0" y="-0.00012207" width="92.1211" height="81.0123" filterUnits="userSpaceOnUse" color-interpolation-filters="sRGB">
<feFlood flood-opacity="0" result="BackgroundImageFix"/>
<feColorMatrix in="SourceAlpha" type="matrix" values="0 0 0 0 0 0 0 0 0 0 0 0 0 0 0 0 0 0 127 0" result="hardAlpha"/>
<feOffset dy="4"/>
<feGaussianBlur stdDeviation="2"/>
<feComposite in2="hardAlpha" operator="out"/>
<feColorMatrix type="matrix" values="0 0 0 0 0 0 0 0 0 0 0 0 0 0 0 0 0 0 0.25 0"/>
<feBlend mode="normal" in2="BackgroundImageFix" result="effect1_dropShadow_328_1683"/>
<feBlend mode="normal" in="SourceGraphic" in2="effect1_dropShadow_328_1683" result="shape"/>
</filter>
</defs>
</svg>
