<svg width="26" height="24" viewBox="0 0 26 24" fill="none" xmlns="http://www.w3.org/2000/svg">
<path d="M25.1257 12C25.1257 9.62663 24.3889 7.30655 23.0085 5.33316C21.6281 3.35977 19.666 1.8217 17.3705 0.913451C15.0749 0.00519943 12.5489 -0.232441 10.112 0.230582C7.67501 0.693605 5.43653 1.83649 3.67958 3.51472C1.92263 5.19295 0.726138 7.33115 0.241397 9.65892C-0.243343 11.9867 0.00544333 14.3995 0.956296 16.5922C1.90715 18.7849 3.51736 20.6591 5.58331 21.9776C7.64926 23.2962 10.0782 24 12.5629 24H12.6885C15.9862 23.9974 19.148 22.7449 21.4799 20.5175C23.8117 18.2902 25.1229 15.27 25.1257 12.12V12ZM23.0319 12C23.0299 12.8888 22.9032 13.7734 22.655 14.63C22.6367 14.699 22.6029 14.7634 22.5559 14.8187C22.5089 14.8739 22.4498 14.9188 22.3828 14.95C22.2621 15.0154 22.1194 15.0334 21.985 15C21.3367 14.7333 20.7837 14.292 20.3937 13.73L18.0696 10.4C17.8302 10.0582 17.5062 9.77804 17.1264 9.58442C16.7465 9.39079 16.3226 9.28967 15.892 9.29001H15.4418C14.6783 9.29001 13.946 9.00027 13.4061 8.48455C12.8662 7.96882 12.5629 7.26935 12.5629 6.54001C12.5629 5.81066 12.8662 5.11119 13.4061 4.59546C13.946 4.07974 14.6783 3.79001 15.4418 3.79001H18.3418C18.4505 3.78783 18.557 3.81942 18.6454 3.88001C19.9993 4.80322 21.1035 6.02136 21.8663 7.43346C22.6292 8.84557 23.0287 10.411 23.0319 12ZM2.28226 10.16C2.30228 10.0444 2.36505 9.93939 2.45917 9.86416C2.55329 9.78894 2.67253 9.74843 2.79524 9.75001H7.32834C7.80732 9.74404 8.28274 9.82941 8.72675 10.0011C9.17077 10.1728 9.57446 10.4274 9.91419 10.75L11.0972 11.9C11.7578 12.5314 12.1409 13.38 12.1682 14.2722C12.1954 15.1645 11.8647 16.033 11.2438 16.7L9.81997 18.23C9.39404 18.6871 9.15925 19.2781 9.16042 19.89V20.72C9.16125 20.8038 9.13955 20.8865 9.09739 20.96C9.05524 21.0335 8.99403 21.0955 8.91963 21.14C8.84337 21.1769 8.75909 21.1961 8.67361 21.1961C8.58812 21.1961 8.50384 21.1769 8.42759 21.14C6.55492 20.3709 4.95804 19.0964 3.83292 17.4727C2.70779 15.8491 2.10337 13.9471 2.09381 12C2.09221 11.3822 2.15534 10.7658 2.28226 10.16Z" fill="black"/>
</svg>
