<svg width="440" height="178" viewBox="0 0 440 178" fill="none" xmlns="http://www.w3.org/2000/svg">
<path d="M67.4675 61.12C67.4675 62.72 67.2542 64.2667 66.8275 65.76C66.4008 67.2533 65.6542 68.5867 64.5875 69.76C64.1608 70.4 63.4142 71.2533 62.3475 72.32C61.2808 73.28 59.8408 74.6667 58.0275 76.48C53.5475 80.2133 49.2808 84.16 45.2275 88.32C41.2808 92.48 37.4408 96.8533 33.7075 101.44C32.4275 102.933 31.1475 104.48 29.8675 106.08C28.5875 107.68 27.5742 109.333 26.8275 111.04C26.0808 112.747 25.7075 114.56 25.7075 116.48C25.8142 118.4 26.6142 120.373 28.1075 122.4C30.7742 126.133 33.6008 129.707 36.5875 133.12C39.5742 136.533 42.7742 139.893 46.1875 143.2C48.2142 145.333 50.2408 147.413 52.2675 149.44C54.4008 151.467 56.4275 153.493 58.3475 155.52C60.9075 158.08 62.4542 160.8 62.9875 163.68C63.5208 166.453 63.2542 168.907 62.1875 171.04C61.1208 173.173 59.3608 174.72 56.9075 175.68C54.5608 176.64 51.7342 176.48 48.4275 175.2C46.7208 174.453 45.0675 173.44 43.4675 172.16C41.8675 170.987 40.3208 169.653 38.8275 168.16C37.3342 166.56 35.8942 164.96 34.5075 163.36C33.1208 161.76 31.8408 160.267 30.6675 158.88C10.6142 136.8 0.587501 122.187 0.587501 115.04C0.587501 109.6 4.48083 101.707 12.2675 91.36C15.2542 87.6267 18.5608 83.7333 22.1875 79.68C25.8142 75.52 29.8675 71.4133 34.3475 67.36C37.1208 64.5867 39.9475 61.8667 42.8275 59.2C45.8142 56.4267 49.0675 54.08 52.5875 52.16C54.0808 51.4133 55.6808 51.0933 57.3875 51.2C59.2008 51.2 60.8542 51.6267 62.3475 52.48C63.8408 53.2267 65.0675 54.3467 66.0275 55.84C66.9875 57.3333 67.4675 59.0933 67.4675 61.12ZM372.414 61.12C372.414 59.0933 372.894 57.3333 373.854 55.84C374.814 54.3467 376.04 53.2267 377.534 52.48C379.027 51.6267 380.627 51.2 382.334 51.2C384.147 51.0933 385.8 51.4133 387.294 52.16C390.814 54.08 394.014 56.4267 396.894 59.2C399.88 61.8667 402.76 64.5867 405.534 67.36C410.014 71.4133 414.067 75.52 417.694 79.68C421.32 83.7333 424.627 87.6267 427.614 91.36C435.4 101.707 439.294 109.6 439.294 115.04C439.294 122.187 429.267 136.8 409.214 158.88C408.04 160.267 406.76 161.76 405.374 163.36C403.987 164.96 402.547 166.56 401.054 168.16C399.56 169.653 398.014 170.987 396.414 172.16C394.814 173.44 393.16 174.453 391.454 175.2C388.147 176.48 385.267 176.64 382.814 175.68C380.467 174.72 378.76 173.173 377.694 171.04C376.627 168.907 376.36 166.453 376.894 163.68C377.427 160.8 378.974 158.08 381.534 155.52C383.454 153.493 385.427 151.467 387.454 149.44C389.587 147.413 391.667 145.333 393.694 143.2C397.107 139.893 400.307 136.533 403.294 133.12C406.28 129.707 409.107 126.133 411.774 122.4C413.16 120.373 413.907 118.4 414.014 116.48C414.12 114.56 413.8 112.747 413.054 111.04C412.307 109.333 411.294 107.68 410.014 106.08C408.734 104.48 407.454 102.933 406.174 101.44C402.44 96.8533 398.547 92.48 394.494 88.32C390.547 84.16 386.334 80.2133 381.854 76.48C380.04 74.6667 378.6 73.28 377.534 72.32C376.467 71.2533 375.72 70.4 375.294 69.76C374.227 68.5867 373.48 67.2533 373.054 65.76C372.627 64.2667 372.414 62.72 372.414 61.12Z" fill="#FF8A00"/>
<path d="M213.528 75.52C213.848 80.8 213.768 86.24 213.287 91.84C212.968 97.44 212.408 102.88 211.608 108.16C210.008 117.28 207.048 126.16 202.728 134.8C198.408 143.44 192.088 150.8 183.768 156.88C175.128 163.28 165.288 167.68 154.248 170.08C143.208 172.32 132.248 173.68 121.368 174.16C117.688 174.48 113.928 174.56 110.088 174.4C106.408 174.4 102.808 174 99.2875 173.2C96.4075 172.72 94.2475 171.84 92.8075 170.56C92.0075 170.08 91.3675 169.44 90.8875 168.64C90.4075 167.84 90.0075 167.04 89.6875 166.24C89.2075 165.44 88.8075 164.64 88.4875 163.84C88.3275 162.88 88.0875 161.92 87.7675 160.96C87.6075 160.16 87.4475 159.44 87.2875 158.8C87.2875 158 87.2875 157.28 87.2875 156.64V19.6C87.2875 18.48 87.2875 17.44 87.2875 16.48C87.2875 15.52 87.4475 14.56 87.7675 13.6C88.0875 11.36 88.5675 9.51999 89.2075 8.07999C89.8475 6.15999 90.7275 4.79999 91.8475 3.99999C92.8075 3.19999 93.7675 2.63999 94.7275 2.32C95.6875 1.83999 96.5675 1.43999 97.3675 1.12C98.3275 0.799992 99.2875 0.799992 100.248 1.12C101.368 1.27999 102.568 1.03999 103.848 0.399992L143.928 1.35999C154.488 1.67999 163.928 4.15999 172.248 8.8C180.568 13.28 187.688 19.04 193.608 26.08C199.528 33.12 204.168 41.04 207.528 49.84C210.888 58.48 212.888 67.04 213.528 75.52ZM168.888 121.12C171.928 116.32 174.168 110.8 175.608 104.56C177.048 98.32 177.688 92 177.528 85.6C177.368 79.04 176.488 72.72 174.888 66.64C173.288 60.4 171.048 54.88 168.168 50.08C165.928 46.56 163.048 43.68 159.528 41.44C156.008 39.2 152.088 37.52 147.768 36.4C143.448 35.12 138.808 34.24 133.848 33.76C129.048 33.28 124.328 33.04 119.688 33.04C119.848 37.68 119.928 42.16 119.928 46.48C119.928 50.8 119.928 55.36 119.928 60.16C119.768 65.92 119.688 71.52 119.688 76.96C119.688 82.4 119.688 87.68 119.688 92.8V141.76C124.648 141.6 129.368 141.36 133.848 141.04C138.488 140.56 142.888 139.6 147.048 138.16C151.368 136.72 155.288 134.72 158.808 132.16C162.488 129.44 165.848 125.76 168.888 121.12Z" fill="#0500FF"/>
<path d="M337.223 17.2C343.303 22.8 347.783 29.52 350.663 37.36C353.543 45.04 354.663 52.72 354.023 60.4C353.383 67.76 351.063 74.56 347.063 80.8C343.063 86.88 336.983 91.52 328.823 94.72C322.423 97.44 316.103 99.36 309.863 100.48C303.623 101.6 296.743 102.48 289.223 103.12C285.863 103.44 282.983 103.68 280.583 103.84C278.343 103.84 275.703 103.92 272.663 104.08C272.023 104.08 270.903 104.08 269.303 104.08C267.863 104.08 266.823 104.16 266.183 104.32V154C265.703 157.04 265.063 160.16 264.263 163.36C263.623 166.56 261.783 169.04 258.743 170.8C256.983 171.76 254.823 172.32 252.263 172.48C249.703 172.64 247.383 172.56 245.303 172.24C243.063 171.92 241.143 171.36 239.543 170.56C238.103 169.6 236.903 168 235.943 165.76C235.303 164.32 234.663 162.72 234.023 160.96C233.543 159.04 233.303 156.72 233.303 154V21.28C233.303 20.16 233.383 19.12 233.543 18.16C233.703 17.2 233.863 16.24 234.023 15.28C234.343 14.48 234.583 13.6 234.743 12.64C234.903 11.68 235.143 10.8 235.463 10C235.783 9.2 236.103 8.48 236.423 7.84C236.903 7.2 237.463 6.63999 238.103 6.15999C238.903 5.35999 240.103 4.63999 241.703 3.99999C243.463 3.35999 246.023 3.03999 249.383 3.03999H249.863C254.823 2.71999 260.343 2.47999 266.423 2.32C272.503 1.99999 277.543 2.07999 281.543 2.55999C283.783 2.87999 285.863 3.11999 287.783 3.28C289.703 3.28 291.543 3.36 293.303 3.51999C295.223 3.67999 297.143 3.83999 299.063 3.99999C300.983 4.15999 302.903 4.39999 304.823 4.71999C306.423 5.03999 307.863 5.27999 309.143 5.44C310.583 5.6 312.023 5.83999 313.463 6.15999C314.743 6.47999 316.103 6.8 317.543 7.11999C319.143 7.43999 320.583 7.99999 321.863 8.8C325.223 9.76 328.023 10.96 330.263 12.4C332.503 13.84 334.823 15.44 337.223 17.2ZM322.823 56.8C322.983 52.96 322.183 49.6 320.423 46.72C318.823 43.84 316.503 41.44 313.463 39.52C310.423 37.6 306.983 36.08 303.143 34.96C299.303 33.84 295.463 33.04 291.623 32.56C290.663 32.56 289.303 32.56 287.543 32.56C285.943 32.4 284.183 32.32 282.263 32.32C280.343 32.16 278.503 32.08 276.743 32.08C275.143 31.92 273.863 31.84 272.903 31.84C272.103 31.68 271.143 31.6 270.023 31.6C268.903 31.6 267.623 31.6 266.183 31.6C266.343 36.56 266.423 41.36 266.423 46C266.423 50.48 266.423 55.36 266.423 60.64C266.263 63.52 266.183 66.4 266.183 69.28C266.183 72.16 266.183 74.96 266.183 77.68L281.063 77.44C284.903 77.44 289.143 77.2 293.783 76.72C298.423 76.24 302.823 75.28 306.983 73.84C311.143 72.4 314.663 70.32 317.543 67.6C320.583 64.88 322.343 61.28 322.823 56.8Z" fill="#05FF00"/>
</svg>
