<svg width="25" height="23" viewBox="0 0 25 23" fill="none" xmlns="http://www.w3.org/2000/svg">
<path fill-rule="evenodd" clip-rule="evenodd" d="M16.1459 0.000381593H18.7501C19.0263 0.000381593 19.2913 0.101347 19.4866 0.281066C19.682 0.460786 19.7917 0.704537 19.7917 0.958699V4.31281L15.1043 0.958699C15.1043 0.704537 15.214 0.460786 15.4094 0.281066C15.6047 0.101347 15.8697 0.000381593 16.1459 0.000381593ZM11.5835 0.20642C11.3996 0.0727259 11.1721 0 10.9377 0C10.7033 0 10.4758 0.0727259 10.2919 0.20642L0.396154 7.3938C0.288772 7.47183 0.199147 7.56855 0.132395 7.67844C0.0656429 7.78833 0.0230717 7.90924 0.00711186 8.03427C-0.008848 8.1593 0.00211603 8.28599 0.039378 8.40712C0.0766399 8.52825 0.13947 8.64145 0.224281 8.74024C0.309092 8.83903 0.414223 8.92148 0.533671 8.98289C0.653119 9.04431 0.784546 9.08347 0.920446 9.09815C1.05635 9.11284 1.19406 9.10275 1.32572 9.06847C1.45739 9.03419 1.58042 8.97639 1.6878 8.89836L3.68049 7.45034V14.3751C3.68049 14.8835 3.89998 15.371 4.29067 15.7304C4.68137 16.0898 5.21126 16.2918 5.76379 16.2918H9.89603V14.3751C9.89603 13.7397 10.1704 13.1304 10.6588 12.6811C11.1471 12.2318 11.8095 11.9793 12.5002 11.9793H13.4137L13.7074 11.3018C13.9587 10.7238 14.3926 10.2283 14.9529 9.87935C15.5133 9.53037 16.1745 9.34389 16.8511 9.34398H18.2053L18.199 7.45322L20.1886 8.89836C20.4055 9.05581 20.6814 9.12756 20.9558 9.09782C21.2302 9.06807 21.4805 8.93927 21.6516 8.73976C21.8228 8.54024 21.9007 8.28635 21.8684 8.03393C21.8361 7.78152 21.6961 7.55125 21.4792 7.3938L11.5835 0.20642ZM16.8511 12.2189C16.7991 12.2189 16.7483 12.2333 16.7053 12.2601C16.6622 12.2869 16.6288 12.325 16.6095 12.3694L16.1543 13.4168H20.3042L19.849 12.3694C19.8297 12.325 19.7963 12.2869 19.7533 12.2601C19.7102 12.2333 19.6594 12.2189 19.6074 12.2189H16.8511ZM15.1585 11.8356L14.471 13.4168H12.5002C12.2239 13.4168 11.959 13.5178 11.7636 13.6975C11.5683 13.8772 11.4585 14.121 11.4585 14.3751V16.5314H25V14.3751C25 14.121 24.8903 13.8772 24.6949 13.6975C24.4996 13.5178 24.2346 13.4168 23.9583 13.4168H21.9875L21.3 11.8356C21.1647 11.5244 20.9311 11.2576 20.6294 11.0697C20.3277 10.8818 19.9717 10.7814 19.6074 10.7815H16.8511C16.4868 10.7814 16.1308 10.8818 15.8291 11.0697C15.5274 11.2576 15.2938 11.5244 15.1585 11.8356ZM17.448 19.1667V17.9688H11.4585V22.0417C11.4585 22.2958 11.5683 22.5396 11.7636 22.7193C11.959 22.899 12.2239 23 12.5002 23H23.9583C24.2346 23 24.4996 22.899 24.6949 22.7193C24.8903 22.5396 25 22.2958 25 22.0417V17.9688H19.0105V19.1667C19.0105 19.3574 18.9282 19.5402 18.7817 19.675C18.6352 19.8097 18.4365 19.8855 18.2293 19.8855C18.0221 19.8855 17.8233 19.8097 17.6768 19.675C17.5303 19.5402 17.448 19.3574 17.448 19.1667Z" fill="white"/>
</svg>
